<?xml version="1.0" encoding="UTF-8"?>
<svg id="Layer_2" data-name="Layer 2" xmlns="http://www.w3.org/2000/svg" viewBox="0 0 24 17.18">
  <defs>
    <style>
      .cls-1 {
        fill: #231f20;
      }

      .cls-2 {
        fill: #fff;
      }
    </style>
  </defs>
  <g id="Layer_1-2" data-name="Layer 1">
    <g>
      <g>
        <g>
          <path class="cls-2" d="M10.2,12.59c.2-.3.34-.62.43-.97.4-1.54-.36-3.21-1.91-4.25h.02c.23,0,.45.03.67.09,1.42.4,2.25,1.98,1.85,3.51-.17.66-.55,1.23-1.06,1.61Z"/>
          <path class="cls-1" d="M9.15,7.54c.08.01.15.03.23.05,1.35.38,2.14,1.89,1.76,3.36-.1.37-.26.71-.48,1.01.04-.1.07-.2.09-.3.38-1.47-.25-3.04-1.6-4.12M8.74,7.25c-.14,0-.27.01-.41.03,1.66.95,2.59,2.69,2.17,4.31-.15.56-.44,1.05-.84,1.45.81-.34,1.47-1.07,1.72-2.03.41-1.6-.45-3.24-1.94-3.66-.24-.07-.47-.1-.71-.1h0Z"/>
        </g>
        <g>
          <path class="cls-2" d="M6.96,13.95c-.47,0-.95-.07-1.42-.2-1.84-.52-3.21-1.96-3.39-3.57L.18,2.32C-.05,1.38.48.43,1.36.18c.14-.04.28-.06.42-.06.75,0,1.41.53,1.6,1.3l1.33,5.33.12-.03c.35-.08.71-.12,1.08-.12.47,0,.95.07,1.42.2.42.12.82.29,1.2.5,1.66.96,2.51,2.63,2.12,4.17-.14.53-.41,1-.81,1.39-.7.69-1.75,1.09-2.88,1.09Z"/>
          <path class="cls-1" d="M1.78.25c.69,0,1.3.5,1.48,1.2l1.3,5.21.06.24.24-.06c.34-.08.69-.12,1.05-.12.46,0,.92.07,1.38.2.41.12.8.28,1.17.49,1.59.91,2.44,2.57,2.06,4.03-.13.51-.39.95-.77,1.33-.68.67-1.7,1.05-2.79,1.05-.46,0-.93-.07-1.38-.2-1.8-.51-3.12-1.9-3.3-3.5l-.02-.06L.3,2.29C.08,1.42.57.53,1.39.3c.13-.04.26-.05.39-.05M1.78,0c-.15,0-.3.02-.45.06C.38.32-.19,1.35.06,2.35l1.95,7.79s.01.04.02.06c.18,1.61,1.55,3.12,3.48,3.67.49.14.98.21,1.45.21,1.18,0,2.25-.41,2.97-1.12.4-.4.69-.88.84-1.45.42-1.62-.52-3.36-2.17-4.31-.37-.21-.78-.39-1.22-.52-.49-.14-.98-.21-1.45-.21-.38,0-.76.04-1.11.13L3.5,1.39c-.21-.84-.93-1.39-1.72-1.39h0Z"/>
        </g>
      </g>
      <g>
        <g>
          <path class="cls-2" d="M22.71,15.7c.2-.3.34-.62.43-.97.4-1.54-.36-3.21-1.91-4.25h.02c.23,0,.45.03.67.09,1.42.4,2.25,1.98,1.85,3.51-.17.66-.55,1.23-1.06,1.61Z"/>
          <path class="cls-1" d="M21.67,10.65c.08.01.15.03.23.05,1.35.38,2.14,1.89,1.76,3.36-.1.37-.26.71-.48,1.01.04-.1.07-.2.09-.3.38-1.47-.25-3.04-1.6-4.12M21.25,10.36c-.14,0-.27.01-.41.03,1.66.95,2.59,2.69,2.17,4.31-.15.56-.44,1.05-.84,1.45.81-.34,1.47-1.07,1.72-2.03.41-1.6-.45-3.24-1.94-3.66-.24-.07-.47-.1-.71-.1h0Z"/>
        </g>
        <g>
          <path class="cls-2" d="M19.47,17.06c-.47,0-.95-.07-1.42-.2-1.84-.52-3.21-1.96-3.39-3.57l-1.97-7.86c-.23-.93.3-1.89,1.18-2.13.14-.04.28-.06.42-.06.75,0,1.41.53,1.6,1.3l1.33,5.33.12-.03c.35-.08.71-.12,1.08-.12.47,0,.95.07,1.42.2.42.12.82.29,1.2.5,1.66.96,2.51,2.63,2.12,4.17-.14.53-.41,1-.81,1.39-.7.69-1.75,1.09-2.88,1.09Z"/>
          <path class="cls-1" d="M14.29,3.36c.69,0,1.3.5,1.48,1.2l1.3,5.21.06.24.24-.06c.34-.08.69-.12,1.05-.12.46,0,.92.07,1.38.2.41.12.8.28,1.17.49,1.59.91,2.44,2.57,2.06,4.03-.13.51-.39.95-.77,1.33-.68.67-1.7,1.05-2.79,1.05-.46,0-.93-.07-1.38-.2-1.8-.51-3.12-1.9-3.3-3.5l-.02-.06-1.95-7.79c-.22-.87.27-1.76,1.09-1.98.13-.04.26-.05.39-.05M14.29,3.11c-.15,0-.3.02-.45.06-.95.26-1.52,1.29-1.27,2.28l1.95,7.79s.01.04.02.06c.18,1.61,1.55,3.12,3.48,3.67.49.14.98.21,1.45.21,1.18,0,2.25-.41,2.97-1.12.4-.4.69-.88.84-1.45.42-1.62-.52-3.36-2.17-4.31-.37-.21-.78-.39-1.22-.52-.49-.14-.98-.21-1.45-.21-.38,0-.76.04-1.11.13l-1.3-5.21c-.21-.84-.93-1.39-1.72-1.39h0Z"/>
        </g>
      </g>
    </g>
  </g>
</svg>