<?xml version="1.0" encoding="UTF-8"?>
<svg id="Layer_1" data-name="Layer 1" xmlns="http://www.w3.org/2000/svg" xmlns:xlink="http://www.w3.org/1999/xlink" viewBox="0 0 343.79 327.11">
  <defs>
    <style>
      .cls-1 {
        fill: url(#linear-gradient-5);
      }

      .cls-2 {
        fill: url(#linear-gradient-6);
      }

      .cls-3 {
        fill: url(#linear-gradient-4);
      }

      .cls-4 {
        fill: url(#linear-gradient-3);
      }

      .cls-5 {
        fill: url(#linear-gradient-2);
      }

      .cls-6 {
        fill: url(#linear-gradient);
      }

      .cls-7 {
        fill: #39b54a;
        opacity: .28;
      }

      .cls-8 {
        fill: #fff;
      }

      .cls-9 {
        opacity: .9;
      }
    </style>
    <linearGradient id="linear-gradient" x1="89.15" y1="310.1" x2="250.96" y2="117.26" gradientUnits="userSpaceOnUse">
      <stop offset=".07" stop-color="#fff" stop-opacity=".25"/>
      <stop offset=".26" stop-color="#d3d5d6"/>
      <stop offset=".66" stop-color="#afb1b4"/>
      <stop offset=".97" stop-color="#1b232a" stop-opacity=".2"/>
    </linearGradient>
    <linearGradient id="linear-gradient-2" x1="81.64" y1="206.87" x2="267.01" y2="21.5" gradientUnits="userSpaceOnUse">
      <stop offset=".07" stop-color="#babcbe" stop-opacity=".25"/>
      <stop offset=".42" stop-color="#fff"/>
      <stop offset=".76" stop-color="#afb1b4"/>
      <stop offset="1" stop-color="#627481" stop-opacity=".2"/>
    </linearGradient>
    <linearGradient id="linear-gradient-3" x1="115.27" y1="234.35" x2="156.13" y2="193.49" gradientUnits="userSpaceOnUse">
      <stop offset=".07" stop-color="#c0c2c4" stop-opacity=".25"/>
      <stop offset=".41" stop-color="#fff"/>
      <stop offset=".76" stop-color="#afb1b4"/>
      <stop offset="1" stop-color="#8399a8" stop-opacity=".2"/>
    </linearGradient>
    <linearGradient id="linear-gradient-4" x1="20.97" y1="225.68" x2="101.43" y2="145.22" gradientUnits="userSpaceOnUse">
      <stop offset=".13" stop-color="#89a0b0" stop-opacity=".2"/>
      <stop offset=".33" stop-color="#afb1b4"/>
      <stop offset=".75" stop-color="#fff"/>
      <stop offset=".94" stop-color="#adafb2" stop-opacity=".25"/>
    </linearGradient>
    <linearGradient id="linear-gradient-5" x1="294.52" y1="276.71" x2="335.38" y2="235.85" xlink:href="#linear-gradient-3"/>
    <linearGradient id="linear-gradient-6" x1="200.22" y1="268.04" x2="280.68" y2="187.58" xlink:href="#linear-gradient-4"/>
  </defs>
  <g class="cls-9">
    <path class="cls-8" d="M166.9,327.11h13.67c79.82,0,144.53-57.48,144.53-128.38v-12.15c0-2.45-.09-4.89-.24-7.31-3.32-.03-6.62-.04-9.86-.12-13.37-.32-26.74-.64-40.11-.97-10.92-.26-21.83-.52-32.75-.76-1.54.03-3.09.03-4.6-.1-36.65-.8-73.29-1.43-109.95-1.54-24.59-.07-49.18-.01-73.77.14-10.4.07-20.72.37-31.02.84-.28,3.24-.42,6.52-.42,9.82v12.15c0,70.9,64.71,128.38,144.53,128.38Z"/>
    <path class="cls-6" d="M106.33,182.74c7.07,0,14.15.01,21.23.03,31.78.1,65.59.57,109.61,1.53,1.06.08,2.21.13,3.5.13.48,0,.97,0,1.45-.01,10.86.24,21.73.5,32.59.76l40.12.97c1.08.03,2.18.04,3.27.06,0,.13,0,.25,0,.37v12.15c0,66.93-61.7,121.38-137.53,121.38h-13.67c-75.83,0-137.53-54.45-137.53-121.38v-12.15c0-1.03.01-2.06.04-3.1,8.52-.33,16.57-.52,24.44-.57,18.12-.12,35.78-.17,52.48-.17M106.33,175.74c-17.51,0-35.01.06-52.52.17-10.4.07-20.72.37-31.02.84-.28,3.24-.42,6.52-.42,9.82v12.15c0,70.9,64.71,128.38,144.53,128.38h13.67c79.82,0,144.53-57.48,144.53-128.38v-12.15c0-2.45-.09-4.89-.24-7.31-3.32-.03-6.62-.04-9.86-.12-13.37-.32-26.74-.64-40.11-.97-10.92-.26-21.83-.52-32.75-.76-.49,0-.98.02-1.47.02-1.05,0-2.1-.03-3.14-.12-36.65-.8-73.29-1.43-109.95-1.54-7.08-.02-14.17-.03-21.25-.03h0Z"/>
  </g>
  <g class="cls-9">
    <path class="cls-8" d="M180.57,0h-13.67C87.08,0,22.37,57.48,22.37,128.38v12.15c0,2.45.09,4.89.24,7.31,3.32.03,6.62.04,9.86.12,13.37.32,26.74.64,40.11.97,10.92.26,21.83.52,32.75.76,1.54-.03,3.09-.03,4.6.1,36.65.8,73.29,1.43,109.95,1.54,24.59.07,49.18.01,73.77-.14,10.4-.07,20.72-.37,31.02-.84.28-3.24.42-6.52.42-9.82v-12.15C325.11,57.48,260.4,0,180.57,0Z"/>
    <path class="cls-5" d="M180.57,7c75.83,0,137.53,54.45,137.53,121.38v12.15c0,1.03-.01,2.06-.04,3.1-8.52.33-16.57.52-24.44.57-18.12.12-35.78.17-52.48.17-7.07,0-14.15-.01-21.23-.03-31.78-.1-65.59-.57-109.61-1.53-1.06-.08-2.21-.13-3.5-.13-.48,0-.97,0-1.45.01-10.86-.24-21.73-.5-32.59-.76-13.37-.32-26.74-.65-40.12-.97-1.08-.03-2.18-.05-3.27-.06,0-.13,0-.25,0-.37v-12.15c0-32.26,14.2-62.65,39.98-85.55C95.37,19.73,130.01,7,166.9,7h13.67M180.57,0h-13.67C87.08,0,22.37,57.48,22.37,128.38v12.15c0,2.45.09,4.89.24,7.31,3.32.03,6.62.04,9.86.12,13.37.32,26.74.64,40.11.97,10.92.26,21.83.52,32.75.76.49,0,.98-.02,1.47-.02,1.05,0,2.1.03,3.14.12,36.65.8,73.29,1.43,109.95,1.54,7.08.02,14.17.03,21.25.03,17.51,0,35.01-.06,52.52-.17,10.4-.07,20.72-.37,31.02-.84.28-3.24.42-6.52.42-9.82v-12.15c0-70.9-64.71-128.38-144.53-128.38h0Z"/>
  </g>
  <rect class="cls-7" x="171.68" y="193.45" width="15.14" height="15.14" rx="5" ry="5"/>
  <g>
    <g>
      <g>
        <path class="cls-8" d="M163.06,229.88c-3.57,13.15-13,23.1-24.58,27.68,5.74-5.39,9.95-12.05,12.04-19.72,6.01-22.09-7.4-45.76-31.15-58.75,5.19-.79,10.59-.54,15.95.91,21.25,5.74,33.67,28.07,27.74,49.88Z"/>
        <path class="cls-4" d="M129.36,181.89c1.74.21,3.47.54,5.18,1,9.31,2.52,17.12,8.57,21.98,17.04,5.06,8.83,6.36,19.18,3.65,29.15-1.7,6.28-4.95,11.95-9.31,16.54,1.05-2.25,1.9-4.58,2.56-7.01,3.12-11.47,1.51-23.58-4.67-35-4.43-8.2-11.15-15.7-19.38-21.73M125.19,178.65c-1.96,0-3.91.15-5.82.44,23.75,12.99,37.16,36.66,31.15,58.75-2.09,7.67-6.3,14.33-12.04,19.72,11.58-4.58,21.01-14.53,24.58-27.68,5.93-21.81-6.49-44.14-27.74-49.88-3.38-.91-6.78-1.35-10.13-1.35h0Z"/>
      </g>
      <g>
        <path class="cls-8" d="M154.2,236.61c-2.09,7.67-6.3,14.33-12.04,19.72-14.5,13.62-38.78,19.15-63.32,12.52-27.67-7.48-47.21-28.13-49.81-50.07-.08-.28-.16-.57-.24-.86L.85,111.81c-3.59-13.61,4.54-27.55,18.15-31.13,13.61-3.59,27.55,4.54,31.14,18.15l18.68,70.95c11.28-2.55,23.95-2.39,36.7,1.06,6.3,1.7,12.18,4.09,17.53,7.02,23.75,12.99,37.16,36.66,31.15,58.75Z"/>
        <path class="cls-3" d="M25.51,82.83c10.19,0,19.12,6.89,21.73,16.76l18.68,70.95.74,2.8,2.83-.64c4.9-1.11,10.03-1.67,15.25-1.67,6.65,0,13.38.91,20.01,2.7,5.93,1.6,11.61,3.87,16.87,6.76,11.13,6.08,20.19,14.88,25.54,24.76,5.43,10.04,6.87,20.62,4.16,30.57-1.9,6.96-5.66,13.12-11.2,18.32-9.81,9.22-24.57,14.51-40.47,14.51-6.66,0-13.39-.91-20.01-2.7-12.9-3.49-24.3-9.99-32.95-18.82-8.26-8.43-13.47-18.62-14.67-28.71l-.03-.24-.07-.23c-.08-.27-.15-.55-.22-.8L3.75,111.05c-1.53-5.81-.71-11.86,2.32-17.05,3.02-5.19,7.89-8.89,13.7-10.41,1.89-.5,3.82-.75,5.75-.75M25.51,79.83c-2.15,0-4.34.27-6.51.85-13.61,3.58-21.74,17.52-18.15,31.13l27.94,106.11c.08.29.16.58.24.86,2.6,21.94,22.14,42.59,49.81,50.07,7.03,1.9,14.03,2.8,20.79,2.8,16.85,0,32.18-5.6,42.53-15.32,5.74-5.39,9.95-12.05,12.04-19.72,6.01-22.09-7.4-45.76-31.15-58.75-5.35-2.93-11.23-5.32-17.53-7.02-7.03-1.9-14.03-2.8-20.79-2.8-5.51,0-10.85.6-15.91,1.74l-18.68-70.95c-3.02-11.43-13.33-19-24.63-19h0Z"/>
      </g>
    </g>
    <g>
      <g>
        <path class="cls-8" d="M342.31,272.24c-3.57,13.15-13,23.1-24.58,27.68,5.74-5.39,9.95-12.05,12.04-19.72,6.01-22.09-7.4-45.76-31.15-58.75,5.19-.79,10.59-.54,15.95.91,21.25,5.74,33.67,28.07,27.74,49.88Z"/>
        <path class="cls-1" d="M308.61,224.26c1.74.21,3.47.54,5.18,1,9.31,2.52,17.12,8.57,21.98,17.04,5.06,8.83,6.36,19.18,3.65,29.15-1.7,6.28-4.95,11.95-9.31,16.54,1.05-2.25,1.9-4.58,2.56-7.01,3.12-11.47,1.51-23.58-4.67-35-4.43-8.2-11.15-15.7-19.38-21.73M304.44,221.01c-1.96,0-3.91.15-5.82.44,23.75,12.99,37.16,36.66,31.15,58.75-2.09,7.67-6.3,14.33-12.04,19.72,11.58-4.58,21.01-14.53,24.58-27.68,5.93-21.81-6.49-44.14-27.74-49.88-3.38-.91-6.78-1.35-10.13-1.35h0Z"/>
      </g>
      <g>
        <path class="cls-8" d="M333.45,278.97c-2.09,7.67-6.3,14.33-12.04,19.72-14.5,13.62-38.78,19.15-63.32,12.52-27.67-7.48-47.21-28.13-49.81-50.07-.08-.28-.16-.57-.24-.86l-27.94-106.11c-3.59-13.61,4.54-27.55,18.15-31.13,13.61-3.59,27.55,4.54,31.14,18.15l18.68,70.95c11.28-2.55,23.95-2.39,36.7,1.06,6.3,1.7,12.18,4.09,17.53,7.02,23.75,12.99,37.16,36.66,31.15,58.75Z"/>
        <path class="cls-2" d="M204.76,125.2c10.19,0,19.12,6.89,21.73,16.76l18.68,70.95.74,2.8,2.83-.64c4.9-1.11,10.03-1.67,15.25-1.67,6.65,0,13.38.91,20.01,2.7,5.93,1.6,11.61,3.87,16.87,6.76,11.13,6.08,20.19,14.88,25.54,24.76,5.43,10.04,6.87,20.62,4.16,30.57-1.9,6.96-5.66,13.12-11.2,18.32-9.81,9.22-24.57,14.51-40.47,14.51-6.66,0-13.39-.91-20.01-2.7-12.9-3.49-24.3-9.99-32.95-18.82-8.26-8.43-13.47-18.62-14.67-28.71l-.03-.24-.07-.23c-.08-.27-.15-.55-.22-.8l-27.94-106.11c-1.53-5.81-.71-11.86,2.32-17.05,3.02-5.19,7.89-8.89,13.7-10.41,1.89-.5,3.82-.75,5.75-.75M204.76,122.2c-2.15,0-4.34.27-6.51.85-13.61,3.58-21.74,17.52-18.15,31.13l27.94,106.11c.08.29.16.58.24.86,2.6,21.94,22.14,42.59,49.81,50.07,7.03,1.9,14.03,2.8,20.79,2.8,16.85,0,32.18-5.6,42.53-15.32,5.74-5.39,9.95-12.05,12.04-19.72,6.01-22.09-7.4-45.76-31.15-58.75-5.35-2.93-11.23-5.32-17.53-7.02-7.03-1.9-14.03-2.8-20.79-2.8-5.51,0-10.85.6-15.91,1.74l-18.68-70.95c-3.02-11.43-13.33-19-24.63-19h0Z"/>
      </g>
    </g>
  </g>
</svg>